<svg id="Layer_1" enable-background="new 0 0 512.119 512.119" height="512" viewBox="0 0 512.119 512.119" width="512" xmlns="http://www.w3.org/2000/svg"><g><path d="m285.333 379.869h-15.307c-5.622 0-10.195 4.575-10.195 10.197v46.12c0 5.623 4.573 10.197 10.195 10.197h15.307c14.078 0 25.53-11.445 25.53-25.514v-15.487c0-14.067-11.452-25.513-25.53-25.513zm10.413 41.001c0 5.732-4.672 10.396-10.413 10.396h-10.385v-36.278h10.385c5.741 0 10.413 4.664 10.413 10.396z" fill="#F4F4F2"/><path d="m234.111 379.869h-25.285c-4.175 0-7.559 3.384-7.559 7.559s3.384 7.559 7.559 7.559h23.508v10.58h-23.508c-4.175 0-7.559 3.384-7.559 7.559s3.384 7.559 7.559 7.559h23.508v10.58h-23.508c-4.175 0-7.559 3.384-7.559 7.559s3.384 7.559 7.559 7.559h25.285c7.356 0 13.342-5.987 13.342-13.346v-39.823c-.001-7.358-5.986-13.345-13.342-13.345z" fill="#F4F4F2"/><path d="m511.664 429.946-12.728-44.674c-1.144-4.015-5.325-6.343-9.341-5.198-4.015 1.144-6.342 5.326-5.198 9.341l8.977 31.508-90.295-50.3c.033-1.096.023-57.367.023-57.367 0-4.175-3.384-7.559-7.559-7.559s-7.559 3.384-7.559 7.559c0 0 .028 57.805-.084 58.756-.299.221-37.069 20.753-37.069 20.753-8.862-41.344-44.136-72.996-87.222-76.337v-20.571l124.375-69.26v51.998c0 4.175 3.384 7.559 7.559 7.559s7.559-3.384 7.559-7.559v-66.401c-.112-3.779-2.095-6.879-5.95-9.299l-133.542-74.365v-102.614l23.15 23.166c1.477 1.477 3.411 2.216 5.347 2.216 1.934 0 3.867-.738 5.344-2.212 2.952-2.951 2.954-7.737.003-10.69l-32.792-32.814c-2.233-2.277-5.366-3.582-8.611-3.582-3.246 0-6.293 1.261-8.578 3.549l-32.825 32.846c-2.951 2.953-2.95 7.739.003 10.69 2.954 2.952 7.739 2.95 10.69-.003l23.151-23.166v102.613l-51.96 28.926c-3.647 2.03-4.958 6.634-2.928 10.281 2.031 3.648 6.635 4.958 10.281 2.928l52.166-29.04 126.726 70.569-126.725 70.569-126.724-70.582 48.103-26.977c3.641-2.042 4.938-6.649 2.895-10.29-2.042-3.642-6.648-4.938-10.29-2.896l-55.059 30.878c-3.792 2.112-5.961 5.512-5.953 9.326 0 .016.003.031.003.046 0 0-.012 157.284.019 158.357l-90.295 50.287 8.955-31.501c1.142-4.016-1.188-8.196-5.204-9.338-4.014-1.142-8.196 1.188-9.338 5.204l-12.71 44.712c-.865 3.105-.485 6.358 1.07 9.159 1.566 2.82 4.236 4.933 7.285 5.784l44.646 12.735c.693.198 1.391.292 2.078.292 3.291 0 6.318-2.166 7.265-5.487 1.145-4.015-1.181-8.198-5.195-9.343l-31.524-8.992 89.444-49.813c.96.703 43.689 24.597 43.689 24.597-.06 1.395-.095 2.797-.095 4.207 0 53.481 43.485 96.992 96.936 96.992s96.935-43.51 96.935-96.992c0-1.409-.035-2.811-.095-4.206 0 0 42.76-23.9 43.713-24.6l89.432 49.82-31.507 8.988c-4.015 1.145-6.341 5.328-5.195 9.343.947 3.322 3.974 5.487 7.265 5.487.687 0 1.385-.094 2.077-.292l44.65-12.736c3.052-.873 5.694-2.979 7.254-5.785 1.563-2.823 1.953-6.075 1.082-9.2zm-385.466-56.718c-1.093-.611-1.673-.992-1.976-1.214-.108-.945-.077-145.415-.077-145.415l124.347 69.258v20.571c-43.085 3.341-78.358 34.991-87.222 76.334zm129.853 121.772c-45.114 0-81.817-36.729-81.817-81.874s36.703-81.874 81.817-81.874c45.115 0 81.818 36.729 81.818 81.874s-36.703 81.874-81.818 81.874z" fill="#F4F4F2" /></g></svg>