<svg height="512" viewBox="0 0 58 60" width="512" xmlns="http://www.w3.org/2000/svg"><g id="Page-1" fill="none" fill-rule="evenodd"><g id="007---AR-Phone-Camera" fill="#F4F4F2" fill-rule="nonzero"><path id="Shape" d="m1.819 31.469 9.181 6.331v18.2c0 2.209139 1.790861 4 4 4h28c2.209139 0 4-1.790861 4-4v-18.2l9.18-6.331c.8122713-.5599326 1.2973256-1.4834357 1.2973256-2.47s-.4850543-1.9100674-1.2973256-2.47l-9.18-6.329v-16.2c0-2.209139-1.790861-4-4-4h-28c-2.209139 0-4 1.790861-4 4v16.2l-9.181 6.33c-.8118505.5599942-1.29660053 1.4832471-1.29660053 2.4695s.48475003 1.9095058 1.29660053 2.4695zm45.181-8.841 8.045 5.549c.2704766.1866852.4319586.4943528.4319586.823s-.161482.6363148-.4319586.823l-8.045 5.548zm-10.309-20.628-1.283 1.368c-.3778598.40298537-.9055734.63173367-1.458.632h-9.9c-.5526257-.00070589-1.0804819-.22935917-1.459-.632l-1.282-1.368zm-23.691 19.249.391-.27c.3332225-.2301327.4947509-.638518.4091059-1.0343251-.085645-.395807-.401553-.7008843-.8001059-.7726749v-15.172c0-1.1045695.8954305-2 2-2h3.567l2.565 2.736c.7573847.80478557 1.8128722 1.26199467 2.918 1.264h9.9c1.105276-.00129287 2.1610336-.45861896 2.918-1.264l2.565-2.736h3.567c1.1045695 0 2 .8954305 2 2v15.172c-.3985529.0717906-.7144609.3768679-.8001059.7726749-.085645.3958071.0758834.8041924.4091059 1.0343251l.391.27v15.5l-15.433 10.645c-.3416849.2355021-.7933151.2355021-1.135 0l-15.432-10.643zm0 17.931 14.3 9.86c1.027.7025926 2.38.7025926 3.407 0l14.293-9.86v11.82c0 1.1045695-.8954305 2-2 2h-28c-1.1045695 0-2-.8954305-2-2zm0 15.264c.6053465.3599241 1.2957468.5518554 2 .556h28c.7042532-.0041446 1.3946535-.1960759 2-.556v1.556c0 1.1045695-.8954305 2-2 2h-28c-1.1045695 0-2-.8954305-2-2zm-10.045-26.267 8.045-5.551v12.746l-8.046-5.549c-.27047664-.1866852-.43195863-.4943528-.43195863-.823s.16148199-.6363148.43195863-.823z"/><path id="Shape" d="m22.421 14.539c.2022236-.0004134.3995701-.0621278.566-.177l1.919-1.324c.3040074-.1986905.4763932-.5465852.4503343-.9088273-.0260588-.3622421-.2464655-.6818802-.575782-.8350108-.3293166-.1531306-.7157684-.1156787-1.0095523.0978381l-1.918 1.323c-.3611392.2483217-.5184977.7028667-.3881892 1.1213221s.5179144.7032966.9561892.7026779z"/><path id="Shape" d="m18.014 15.362-1.914 1.324c-.4428738.3174601-.5500621.9310532-.2410473 1.3798604.3090148.4488073.9204676.5675983 1.3750473.2671396l1.919-1.324c.4428738-.3174601.5500621-.9310532.2410473-1.3798604-.3090148-.4488073-.9204676-.5675983-1.3750473-.2671396z"/><path id="Shape" d="m28.744 10.391.256-.176.256.176c.4542184.2968641 1.0623064.1773178 1.3703412-.2694005.3080348-.44671829.2036023-1.0575834-.2353412-1.3765995l-.824-.568c-.3414622-.23504294-.7925378-.23504294-1.134 0l-.824.568c-.4389435.3190161-.543376.92988121-.2353412 1.3765995.3080348.4467183.9161228.5662646 1.3703412.2694005z"/><path id="Shape" d="m35.014 14.362c.4545797.3004587 1.0660325.1816677 1.3750473-.2671396.3090148-.4488072.2018265-1.0624003-.2410473-1.3798604l-1.919-1.323c-.2931474-.2296705-.6896343-.2774197-1.0289278-.1239144-.3392936.1535052-.5651811.4828328-.5862034.8546419-.0210224.3718091.1663034.7245001.4861312.9152725z"/><path id="Shape" d="m40.771 18.333c.2942082.2027482.6742327.2331371.9969219.0797195.3226893-.1534177.5390191-.4673342.5675001-.8235001s-.1352138-.7004712-.429422-.9032194l-1.919-1.324c-.4545797-.3004587-1.0660325-.1816677-1.3750473.2671396-.3090148.4488072-.2018265 1.0624003.2410473 1.3798604z"/><path id="Shape" d="m29 35c.1874199.0000007.3710679-.0526682.53-.152l8-5c.2923815-.1827389.4700008-.5032096.47-.848v-9c.0000008-.3447904-.1776185-.6652611-.47-.848l-8-5c-.3242708-.2026698-.7357292-.2026698-1.06 0l-8 5c-.2923815.1827389-.4700008.5032096-.47.848v9c-.0000008.3447904.1776185.6652611.47.848l8 5c.1589321.0993318.3425801.1520007.53.152zm7-6.554-6 3.754v-6.645l6-3.75zm-7-12.267 6.113 3.821-6.113 3.821-6.113-3.821zm-1 16.021-6-3.75v-6.645l6 3.75z"/></g></g></svg>