<svg id="Layer_5" enable-background="new 0 0 64 64" height="512" viewBox="0 0 64 64" width="512" xmlns="http://www.w3.org/2000/svg"><g><path d="m20.818 53.389.115.115 2.974 1.487.895-1.789-2.673-1.336c-1.064-1.176-1.03-3 .104-4.134s2.958-1.167 4.134-.104l1.336 2.673 1.789-.895-1.487-2.974-.115-.115c-1.806-1.806-4.651-1.916-6.611-.375-1.973-1.725-5.279-8.478-5.279-10.942 0-1.171.413-2.473 1.189-3.869-.586-.4-1.07-.928-1.441-1.534-.937 1.548-1.748 3.445-1.748 5.403 0 3.94 4.458 10.461 6.038 12.368-1.098 1.911-.851 4.39.78 6.021z" fill="#ffffff"/><path d="m13.699 41h-12.699v2h13.737c-.364-.648-.713-1.318-1.038-2z" fill="#ffffff"/><path d="m41.153 41 1.73-10.38c.077-.467.117-.943.117-1.415 0-1.829-.599-3.64-1.684-5.112l-.005-.007c-.012-.016-.022-.033-.033-.049l-.778-1.037h-1.5-14-1.5l-.769 1.026-.451.669c-.828 1.35-1.28 2.923-1.28 4.51 0 .472.04.948.117 1.416l1.73 10.379h-2.581c.393.737.794 1.425 1.168 2h41.566v-2zm-16.153-2v-2h2v2zm4 0v-2h2v2zm4 0v-2h2v2zm4 0v-2h2v2zm-13-11c0-1.105.895-2 2-2h12c1.105 0 2 .895 2 2v4c0 1.105-.895 2-2 2h-12c-1.105 0-2-.895-2-2z" fill="#ffffff"/><path d="m19.026 29.824c-.012-.207-.026-.413-.026-.619 0-1.801.477-3.587 1.349-5.159-.117-.015-.232-.046-.349-.046-1.654 0-3 1.346-3 3 0 1.311.851 2.417 2.026 2.824z" fill="#ffffff"/><path d="m19 15h1v-6h-1c-.551 0-1 .449-1 1v4c0 .551.449 1 1 1z" fill="#ffffff"/><path d="m46 14v-4c0-.551-.449-1-1-1h-1v6h1c.551 0 1-.449 1-1z" fill="#ffffff"/><path d="m44.974 29.833c1.162-.4 2.026-1.511 2.026-2.833 0-1.654-1.346-3-3-3-.117 0-.232.031-.348.046.871 1.572 1.348 3.357 1.348 5.159 0 .209-.014.418-.026.628z" fill="#ffffff"/><path d="m25 21h14c1.654 0 3-1.346 3-3v-12c0-1.654-1.346-3-3-3h-1.5l-3 4h-5l-3-4h-1.5c-1.654 0-3 1.346-3 3v12c0 1.654 1.346 3 3 3zm12-13c1.105 0 2 .895 2 2s-.895 2-2 2-2-.895-2-2 .895-2 2-2zm-1.027 9 .027-2h2v1.973c0 1.117-.91 2.027-2.027 2.027h-7.945c-1.118 0-2.028-.91-2.028-2.027v-1.973h2v1.973zm-8.973-9c1.105 0 2 .895 2 2s-.895 2-2 2-2-.895-2-2 .895-2 2-2z" fill="#ffffff"/><path d="m33.5 5 1.5-2h-6l1.5 2z" fill="#ffffff"/><path d="m32.174 50.301-5.174 2.699v2h-.862l-1 2h1.862v2h-2v-1.725l-5.352-2.275h-2.648v-8h-3v14h36v-14h-19.477zm-13.174 8.699h-2v-2h2zm4 0h-2v-2h2zm8 0h-2v-2h2zm0-4h-2v-2h2zm14-6h2v2h-2zm0 4h2v2h-2zm0 4h2v2h-2zm-4-8h2v2h-2zm0 4h2v2h-2zm0 4h2v2h-2zm-4-8h2v2h-2zm0 4h2v2h-2zm0 4h2v2h-2zm-4-8h2v2h-2zm0 4h2v2h-2zm0 4h2v2h-2z" fill="#ffffff"/><path d="m48.886 25.954c.072.338.114.687.114 1.046 0 .327-.036.645-.096.954 4.539-.455 8.096-4.297 8.096-8.954v-3.101c2.279-.465 4-2.484 4-4.899v-.162l-1.051-3.154-1.897.633.945 2.834c-.08 1.584-1.393 2.849-2.997 2.849s-2.917-1.265-2.996-2.849l.945-2.834-1.897-.633-1.052 3.154v.162c0 2.414 1.721 4.434 4 4.899v3.213c0 3.536-2.679 6.455-6.114 6.842z" fill="#ffffff"/></g></svg>